<svg width="150" height="223" xmlns="http://www.w3.org/2000/svg" preserveAspectRatio="xMidYMid" viewBox="0 0 150 223">
  <defs>
    <style>
      path {
        fill-rule: evenodd;
        fill: #fff;
      }
    </style>
  </defs>
  <path d="m144.0755,135.61269c0,0 -0.43,-2.111 -2.127,-5.234c-1.843,-3.391 -3.892,-3.381 -3.892,-3.381c0,0 0.378,6.741 -0.526,14.904c-1.07,9.66 -5.356,19.386 -5.356,19.386c0,0 -0.445,-1.612 -2.111,-4.136c-1.819,-2.754 -4.19,-3.752 -4.19,-3.752c0.262,-0.074 -1.149,8.067 -9.313,21.943c-11.717,19.912 -25.787,30.985 -34.267,37.386c-3.486,2.633 -6.027,4.652 -7.071,6.496l0,1.777c0,-0.406 -0.094,-0.815 -0.263,-1.23c-0.17,0.415 -0.264,0.824 -0.264,1.23l0,-1.779c-1.043,-1.843 -3.581,-3.863 -7.063,-6.495c-8.471,-6.403 -22.525,-17.478 -34.228,-37.395c-8.156,-13.879 -9.566,-22.022 -9.304,-21.948c0,0 -2.368,0.998 -4.185,3.753c-1.665,2.524 -2.108,4.136 -2.108,4.136c0,0 -4.282,-9.728 -5.35,-19.389c-0.904,-8.166 -0.526,-14.908 -0.526,-14.908c0,0 -2.047,-0.01 -3.888,3.382c-1.695,3.123 -2.125,5.235 -2.125,5.235c-12.912,-25.978 -0.258,-82.128 12.004,-90.567c0,0 -4.731,-9.455 -4.206,-27.315c0.526,-17.86 2.103,-18.911 9.989,-11.032c7.885,7.88 18.399,18.386 18.399,18.386c0,0 6.658,-4.027 18.399,-6.829c9.12,-2.176 12.542,-1.634 14.719,-1.59l0,0.028c2.279,-0.093 5.765,-0.405 14.209,1.608c11.753,2.8 18.419,6.827 18.419,6.827c0,0 10.525,-10.504 18.419,-18.381c7.894,-7.878 9.473,-6.828 9.999,11.028c0.527,17.856 -4.21,27.31 -4.21,27.31c12.276,8.436 24.943,64.574 12.017,90.546zm-113.112,-107.698c-5.116,-3.294 -10.588,-11.968 -10.529,-2.93c0.036,5.372 0.581,10.565 1.764,13.514c0.807,2.012 1.34,1.442 2.414,0.512c1.434,-1.241 0.775,-1.877 0.466,-3.835c-0.542,-3.426 -1.278,-4.322 0.872,-3.844c3.792,0.844 5.282,0.383 6.321,0.232c1.508,-0.219 2.748,-1.037 -1.308,-3.649zm83.717,21.264c-8.551,-9.65 -20.528,-4.132 -25.855,-3.105c-5.02,0.968 -11.082,1.479 -14.13,1.535l0,-0.053c-3.226,-0.099 -8.842,-0.605 -13.587,-1.522c-5.321,-1.027 -17.285,-6.545 -25.827,3.106c-16.063,18.149 -9.642,46.545 -2.002,57.004c1.112,-2.857 3.792,-4.063 6.137,-3.818c-0.22,4.842 3.074,9.187 6.053,12.202c0,0 0.014,-3.075 4.433,-4.838c8.363,-3.337 6.637,26.212 8.228,36.342c1.856,11.81 6.053,15.626 10.713,15.627c0.941,0 3.169,0.158 3.75,-0.542c1.854,-2.231 -0.752,-6.379 -2.628,-7.354c-4.458,-2.316 -7.276,-6.161 -3.809,-6.912c2.481,-0.537 6.433,-0.525 9.066,-0.525l0,0.017c2.614,0.001 5.696,0.022 8.022,0.525c3.471,0.751 1.176,4.596 -3.286,6.911c-1.878,0.974 -4.488,5.121 -2.631,7.352c0.582,0.7 2.812,0.542 3.754,0.542c4.665,-0.001 8.868,-3.816 10.725,-15.624c1.593,-10.127 -0.135,-39.67 8.237,-36.334c4.424,1.763 4.438,4.836 4.438,4.836c2.982,-3.013 6.28,-7.357 6.059,-12.198c2.348,-0.246 5.032,0.96 6.145,3.816c7.648,-10.456 14.075,-38.845 -2.005,-56.99zm4.323,-21.221c-4.061,2.612 -2.819,3.43 -1.31,3.649c1.041,0.151 2.532,0.611 6.328,-0.232c2.153,-0.478 1.416,0.417 0.873,3.843c-0.309,1.957 -0.968,2.593 0.467,3.834c1.075,0.929 1.608,1.5 2.416,-0.512c1.185,-2.948 1.73,-8.14 1.766,-13.51c0.06,-9.037 -5.419,-0.365 -10.54,2.928zm-30.62,64.746c0,0 2.667,-2.03 6.671,-6.084c5.798,-5.869 12.265,-4.695 12.265,-4.695c0.163,9.268 -2.793,14.478 -18.936,10.779zm-45.749,-10.81c0,0 6.46,-1.174 12.252,4.696c3.999,4.055 6.663,6.085 6.663,6.085c-16.125,3.7 -19.077,-1.511 -18.915,-10.781z" />
</svg>